ply
format ascii 1.0
element vertex 28
property float32 x
property float32 y
property float32 z
element face 48
property list uint8 int32 vertex_indices
end_header
0 -0.5 0
0.5 -0.5 0
0.5 0.5 0
0 0.5 0
0.482963 -0.5 -0.12941
0.482963 0.5 -0.12941
0.433013 -0.5 -0.25
0.433013 0.5 -0.25
0.353553 -0.5 -0.353553
0.353553 0.5 -0.353553
0.25 -0.5 -0.433013
0.25 0.5 -0.433013
0.12941 -0.5 -0.482963
0.12941 0.5 -0.482963
-2.18557e-008 -0.5 -0.5
-2.18557e-008 0.5 -0.5
-0.12941 -0.5 -0.482963
-0.12941 0.5 -0.482963
-0.25 -0.5 -0.433013
-0.25 0.5 -0.433013
-0.353553 -0.5 -0.353553
-0.353553 0.5 -0.353553
-0.433013 -0.5 -0.25
-0.433013 0.5 -0.25
-0.482963 -0.5 -0.12941
-0.482963 0.5 -0.12941
-0.5 -0.5 4.37114e-008
-0.5 0.5 4.37114e-008
3 3 2 5
3 3 5 7
3 3 7 9
3 3 9 11
3 3 11 13
3 3 13 15
3 3 15 17
3 3 17 19
3 3 19 21
3 3 21 23
3 3 23 25
3 3 25 27
3 0 1 4
3 0 4 6
3 0 6 8
3 0 8 10
3 0 10 12
3 0 12 14
3 0 14 16
3 0 16 18
3 0 18 20
3 0 20 22
3 0 22 24
3 0 24 26
3 1 2 4
3 4 5 6
3 6 7 8
3 8 9 10
3 10 11 12
3 12 13 14
3 14 15 16
3 16 17 18
3 18 19 20
3 20 21 22
3 22 23 24
3 24 25 26
3 4 5 2
3 6 7 5
3 8 9 7
3 10 11 9
3 12 13 11
3 14 15 13
3 16 17 15
3 18 19 17
3 20 21 19
3 22 23 21
3 24 25 23
3 26 27 25 